<mxfile host="app.diagrams.net" modified="2022-04-26T07:09:07.717Z" agent="5.0 (Macintosh; Intel Mac OS X 10_15_7) AppleWebKit/537.36 (KHTML, like Gecko) Chrome/97.0.4692.99 Safari/537.36" etag="6p_gTRxGAkuCu4qxGUB1" version="17.4.6" type="github">
  <diagram id="h3hP6rMjAr4qnS1k1Pty" name="Page-1">
    <mxGraphModel dx="354" dy="557" grid="1" gridSize="10" guides="1" tooltips="1" connect="1" arrows="1" fold="1" page="1" pageScale="1" pageWidth="827" pageHeight="1169" math="0" shadow="0">
      <root>
        <mxCell id="0" />
        <mxCell id="1" parent="0" />
        <mxCell id="6WhiR2F2wimydT9bmPVz-14" value="信息模块" style="swimlane;fillColor=#dae8fc;strokeColor=#6c8ebf;" parent="1" vertex="1">
          <mxGeometry x="890" y="275" width="190" height="200" as="geometry" />
        </mxCell>
        <mxCell id="6WhiR2F2wimydT9bmPVz-15" value="官方信息" style="rounded=1;whiteSpace=wrap;html=1;fillColor=#f5f5f5;fontColor=#333333;strokeColor=#666666;" parent="6WhiR2F2wimydT9bmPVz-14" vertex="1">
          <mxGeometry x="40" y="30" width="110" height="30" as="geometry" />
        </mxCell>
        <mxCell id="6WhiR2F2wimydT9bmPVz-16" value="害虫百科" style="rounded=1;whiteSpace=wrap;html=1;fillColor=#f5f5f5;fontColor=#333333;strokeColor=#666666;" parent="6WhiR2F2wimydT9bmPVz-14" vertex="1">
          <mxGeometry x="40" y="70" width="110" height="30" as="geometry" />
        </mxCell>
        <mxCell id="6WhiR2F2wimydT9bmPVz-17" value="虫情虫灾" style="rounded=1;whiteSpace=wrap;html=1;fillColor=#f5f5f5;fontColor=#333333;strokeColor=#666666;" parent="6WhiR2F2wimydT9bmPVz-14" vertex="1">
          <mxGeometry x="40" y="110" width="110" height="30" as="geometry" />
        </mxCell>
        <mxCell id="6WhiR2F2wimydT9bmPVz-18" value="气象信息" style="rounded=1;whiteSpace=wrap;html=1;fillColor=#f5f5f5;fontColor=#333333;strokeColor=#666666;" parent="6WhiR2F2wimydT9bmPVz-14" vertex="1">
          <mxGeometry x="40" y="150" width="110" height="30" as="geometry" />
        </mxCell>
        <mxCell id="6WhiR2F2wimydT9bmPVz-22" value="官方信息" style="swimlane;fillColor=#dae8fc;strokeColor=#6c8ebf;" parent="1" vertex="1">
          <mxGeometry x="1160" y="20" width="190" height="130" as="geometry">
            <mxRectangle x="460" y="100" width="80" height="23" as="alternateBounds" />
          </mxGeometry>
        </mxCell>
        <mxCell id="6WhiR2F2wimydT9bmPVz-23" value="搜索" style="rounded=1;whiteSpace=wrap;html=1;fillColor=#f5f5f5;fontColor=#333333;strokeColor=#666666;" parent="6WhiR2F2wimydT9bmPVz-22" vertex="1">
          <mxGeometry x="40" y="30" width="110" height="30" as="geometry" />
        </mxCell>
        <mxCell id="6WhiR2F2wimydT9bmPVz-24" value="文章列表" style="rounded=1;whiteSpace=wrap;html=1;fillColor=#f5f5f5;fontColor=#333333;strokeColor=#666666;" parent="6WhiR2F2wimydT9bmPVz-22" vertex="1">
          <mxGeometry x="40" y="70" width="110" height="30" as="geometry" />
        </mxCell>
        <mxCell id="6WhiR2F2wimydT9bmPVz-30" value="文章详情" style="swimlane;fillColor=#dae8fc;strokeColor=#6c8ebf;" parent="1" vertex="1">
          <mxGeometry x="1400" y="10" width="190" height="120" as="geometry" />
        </mxCell>
        <mxCell id="6WhiR2F2wimydT9bmPVz-31" value="文章内容" style="rounded=1;whiteSpace=wrap;html=1;fillColor=#f5f5f5;fontColor=#333333;strokeColor=#666666;" parent="6WhiR2F2wimydT9bmPVz-30" vertex="1">
          <mxGeometry x="40" y="30" width="110" height="30" as="geometry" />
        </mxCell>
        <mxCell id="6WhiR2F2wimydT9bmPVz-32" value="上一页/下一页" style="rounded=1;whiteSpace=wrap;html=1;fillColor=#f5f5f5;fontColor=#333333;strokeColor=#666666;" parent="6WhiR2F2wimydT9bmPVz-30" vertex="1">
          <mxGeometry x="40" y="70" width="110" height="30" as="geometry" />
        </mxCell>
        <mxCell id="6WhiR2F2wimydT9bmPVz-35" value="" style="edgeStyle=orthogonalEdgeStyle;rounded=0;orthogonalLoop=1;jettySize=auto;html=1;entryX=0;entryY=0.5;entryDx=0;entryDy=0;noEdgeStyle=1;" parent="1" source="6WhiR2F2wimydT9bmPVz-31" target="6WhiR2F2wimydT9bmPVz-42" edge="1">
          <mxGeometry relative="1" as="geometry">
            <mxPoint x="554" y="385" as="targetPoint" />
          </mxGeometry>
        </mxCell>
        <mxCell id="6WhiR2F2wimydT9bmPVz-42" value="收藏/取消收藏" style="whiteSpace=wrap;html=1;fillColor=#dae8fc;strokeColor=#6c8ebf;rounded=1;" parent="1" vertex="1">
          <mxGeometry x="1607" y="30" width="113" height="42.5" as="geometry" />
        </mxCell>
        <mxCell id="6WhiR2F2wimydT9bmPVz-45" style="edgeStyle=orthogonalEdgeStyle;rounded=0;orthogonalLoop=1;jettySize=auto;html=1;" parent="1" source="6WhiR2F2wimydT9bmPVz-23" target="6WhiR2F2wimydT9bmPVz-30" edge="1">
          <mxGeometry relative="1" as="geometry" />
        </mxCell>
        <mxCell id="6WhiR2F2wimydT9bmPVz-46" style="edgeStyle=orthogonalEdgeStyle;rounded=0;orthogonalLoop=1;jettySize=auto;html=1;entryX=0;entryY=0.5;entryDx=0;entryDy=0;" parent="1" source="6WhiR2F2wimydT9bmPVz-24" target="6WhiR2F2wimydT9bmPVz-30" edge="1">
          <mxGeometry relative="1" as="geometry">
            <mxPoint x="1530" y="100" as="targetPoint" />
          </mxGeometry>
        </mxCell>
        <mxCell id="6WhiR2F2wimydT9bmPVz-47" value="害虫百科" style="swimlane;fillColor=#dae8fc;strokeColor=#6c8ebf;" parent="1" vertex="1">
          <mxGeometry x="1160" y="165" width="190" height="155" as="geometry" />
        </mxCell>
        <mxCell id="6WhiR2F2wimydT9bmPVz-48" value="热门害虫" style="rounded=1;whiteSpace=wrap;html=1;fillColor=#f5f5f5;fontColor=#333333;strokeColor=#666666;" parent="6WhiR2F2wimydT9bmPVz-47" vertex="1">
          <mxGeometry x="40" y="30" width="110" height="30" as="geometry" />
        </mxCell>
        <mxCell id="6WhiR2F2wimydT9bmPVz-49" value="分类查询" style="rounded=1;whiteSpace=wrap;html=1;fillColor=#f5f5f5;fontColor=#333333;strokeColor=#666666;" parent="6WhiR2F2wimydT9bmPVz-47" vertex="1">
          <mxGeometry x="40" y="70" width="110" height="30" as="geometry" />
        </mxCell>
        <mxCell id="6WhiR2F2wimydT9bmPVz-50" value="共建虫类图库" style="rounded=1;whiteSpace=wrap;html=1;fillColor=#f5f5f5;fontColor=#333333;strokeColor=#666666;" parent="6WhiR2F2wimydT9bmPVz-47" vertex="1">
          <mxGeometry x="40" y="110" width="110" height="30" as="geometry" />
        </mxCell>
        <mxCell id="6WhiR2F2wimydT9bmPVz-52" value="昆虫详情" style="swimlane;fillColor=#dae8fc;strokeColor=#6c8ebf;" parent="1" vertex="1">
          <mxGeometry x="1627" y="115" width="190" height="85" as="geometry" />
        </mxCell>
        <mxCell id="6WhiR2F2wimydT9bmPVz-53" value="昆虫介绍" style="rounded=1;whiteSpace=wrap;html=1;fillColor=#f5f5f5;fontColor=#333333;strokeColor=#666666;" parent="6WhiR2F2wimydT9bmPVz-52" vertex="1">
          <mxGeometry x="40" y="30" width="110" height="30" as="geometry" />
        </mxCell>
        <mxCell id="6WhiR2F2wimydT9bmPVz-59" value="收藏/取消收藏" style="whiteSpace=wrap;html=1;fillColor=#dae8fc;strokeColor=#6c8ebf;rounded=1;" parent="1" vertex="1">
          <mxGeometry x="1884" y="150" width="116" height="50" as="geometry" />
        </mxCell>
        <mxCell id="6WhiR2F2wimydT9bmPVz-60" style="edgeStyle=orthogonalEdgeStyle;rounded=0;orthogonalLoop=1;jettySize=auto;html=1;" parent="1" source="6WhiR2F2wimydT9bmPVz-53" target="6WhiR2F2wimydT9bmPVz-59" edge="1">
          <mxGeometry relative="1" as="geometry" />
        </mxCell>
        <mxCell id="6WhiR2F2wimydT9bmPVz-61" value="共建虫类图库" style="swimlane;fillColor=#dae8fc;strokeColor=#6c8ebf;" parent="1" vertex="1">
          <mxGeometry x="1410" y="305" width="190" height="150" as="geometry" />
        </mxCell>
        <mxCell id="6WhiR2F2wimydT9bmPVz-62" value="选择昆虫名称" style="rounded=1;whiteSpace=wrap;html=1;fillColor=#f5f5f5;fontColor=#333333;strokeColor=#666666;" parent="6WhiR2F2wimydT9bmPVz-61" vertex="1">
          <mxGeometry x="40" y="30" width="110" height="30" as="geometry" />
        </mxCell>
        <mxCell id="6WhiR2F2wimydT9bmPVz-63" value="选择地理位置" style="rounded=1;whiteSpace=wrap;html=1;fillColor=#f5f5f5;fontColor=#333333;strokeColor=#666666;" parent="6WhiR2F2wimydT9bmPVz-61" vertex="1">
          <mxGeometry x="40" y="70" width="110" height="30" as="geometry" />
        </mxCell>
        <mxCell id="6WhiR2F2wimydT9bmPVz-64" value="选择图片" style="rounded=1;whiteSpace=wrap;html=1;fillColor=#f5f5f5;fontColor=#333333;strokeColor=#666666;" parent="6WhiR2F2wimydT9bmPVz-61" vertex="1">
          <mxGeometry x="40" y="110" width="110" height="30" as="geometry" />
        </mxCell>
        <mxCell id="6WhiR2F2wimydT9bmPVz-65" value="气象信息" style="swimlane;fillColor=#dae8fc;strokeColor=#6c8ebf;" parent="1" vertex="1">
          <mxGeometry x="1160" y="530" width="190" height="80" as="geometry" />
        </mxCell>
        <mxCell id="6WhiR2F2wimydT9bmPVz-66" value="气象信息" style="rounded=1;whiteSpace=wrap;html=1;fillColor=#f5f5f5;fontColor=#333333;strokeColor=#666666;" parent="6WhiR2F2wimydT9bmPVz-65" vertex="1">
          <mxGeometry x="40" y="30" width="110" height="30" as="geometry" />
        </mxCell>
        <mxCell id="6WhiR2F2wimydT9bmPVz-71" style="edgeStyle=orthogonalEdgeStyle;rounded=0;orthogonalLoop=1;jettySize=auto;html=1;entryX=0;entryY=0.5;entryDx=0;entryDy=0;" parent="1" source="6WhiR2F2wimydT9bmPVz-50" target="6WhiR2F2wimydT9bmPVz-61" edge="1">
          <mxGeometry relative="1" as="geometry" />
        </mxCell>
        <mxCell id="6WhiR2F2wimydT9bmPVz-72" style="edgeStyle=orthogonalEdgeStyle;rounded=0;orthogonalLoop=1;jettySize=auto;html=1;entryX=0;entryY=0.5;entryDx=0;entryDy=0;" parent="1" source="6WhiR2F2wimydT9bmPVz-16" target="6WhiR2F2wimydT9bmPVz-47" edge="1">
          <mxGeometry relative="1" as="geometry" />
        </mxCell>
        <mxCell id="6WhiR2F2wimydT9bmPVz-74" value="虫情虫灾" style="swimlane;fillColor=#dae8fc;strokeColor=#6c8ebf;" parent="1" vertex="1">
          <mxGeometry x="1160" y="350" width="190" height="145" as="geometry" />
        </mxCell>
        <mxCell id="6WhiR2F2wimydT9bmPVz-75" value="搜索" style="rounded=1;whiteSpace=wrap;html=1;fillColor=#f5f5f5;fontColor=#333333;strokeColor=#666666;" parent="6WhiR2F2wimydT9bmPVz-74" vertex="1">
          <mxGeometry x="40" y="30" width="110" height="30" as="geometry" />
        </mxCell>
        <mxCell id="6WhiR2F2wimydT9bmPVz-76" value="文章列表" style="rounded=1;whiteSpace=wrap;html=1;fillColor=#f5f5f5;fontColor=#333333;strokeColor=#666666;" parent="6WhiR2F2wimydT9bmPVz-74" vertex="1">
          <mxGeometry x="40" y="72.5" width="110" height="30" as="geometry" />
        </mxCell>
        <mxCell id="6WhiR2F2wimydT9bmPVz-77" value="文章详情" style="swimlane;fillColor=#dae8fc;strokeColor=#6c8ebf;" parent="1" vertex="1">
          <mxGeometry x="1400" y="530" width="190" height="130" as="geometry" />
        </mxCell>
        <mxCell id="6WhiR2F2wimydT9bmPVz-78" value="文章内容" style="rounded=1;whiteSpace=wrap;html=1;fillColor=#f5f5f5;fontColor=#333333;strokeColor=#666666;" parent="6WhiR2F2wimydT9bmPVz-77" vertex="1">
          <mxGeometry x="40" y="30" width="110" height="30" as="geometry" />
        </mxCell>
        <mxCell id="6WhiR2F2wimydT9bmPVz-79" value="上一页/下一页" style="rounded=1;whiteSpace=wrap;html=1;fillColor=#f5f5f5;fontColor=#333333;strokeColor=#666666;" parent="6WhiR2F2wimydT9bmPVz-77" vertex="1">
          <mxGeometry x="40" y="70" width="110" height="30" as="geometry" />
        </mxCell>
        <mxCell id="6WhiR2F2wimydT9bmPVz-80" value="" style="edgeStyle=orthogonalEdgeStyle;rounded=0;orthogonalLoop=1;jettySize=auto;html=1;entryX=0;entryY=0.5;entryDx=0;entryDy=0;" parent="1" source="6WhiR2F2wimydT9bmPVz-78" target="6WhiR2F2wimydT9bmPVz-81" edge="1">
          <mxGeometry relative="1" as="geometry">
            <mxPoint x="2651" y="292" as="targetPoint" />
          </mxGeometry>
        </mxCell>
        <mxCell id="6WhiR2F2wimydT9bmPVz-81" value="收藏/取消收藏" style="whiteSpace=wrap;html=1;fillColor=#dae8fc;strokeColor=#6c8ebf;rounded=1;" parent="1" vertex="1">
          <mxGeometry x="1654" y="557.5" width="90" height="35" as="geometry" />
        </mxCell>
        <mxCell id="6WhiR2F2wimydT9bmPVz-84" style="edgeStyle=orthogonalEdgeStyle;rounded=0;orthogonalLoop=1;jettySize=auto;html=1;entryX=0;entryY=0.5;entryDx=0;entryDy=0;" parent="1" source="6WhiR2F2wimydT9bmPVz-17" target="6WhiR2F2wimydT9bmPVz-74" edge="1">
          <mxGeometry relative="1" as="geometry" />
        </mxCell>
        <mxCell id="6WhiR2F2wimydT9bmPVz-85" style="edgeStyle=orthogonalEdgeStyle;rounded=0;orthogonalLoop=1;jettySize=auto;html=1;entryX=0;entryY=0.5;entryDx=0;entryDy=0;" parent="1" source="6WhiR2F2wimydT9bmPVz-18" target="6WhiR2F2wimydT9bmPVz-65" edge="1">
          <mxGeometry relative="1" as="geometry" />
        </mxCell>
        <mxCell id="6WhiR2F2wimydT9bmPVz-87" value="地理位置选择" style="swimlane;fillColor=#dae8fc;strokeColor=#6c8ebf;" parent="1" vertex="1">
          <mxGeometry x="1627" y="355" width="190" height="120" as="geometry" />
        </mxCell>
        <mxCell id="6WhiR2F2wimydT9bmPVz-88" value="地图" style="rounded=1;whiteSpace=wrap;html=1;fillColor=#f5f5f5;fontColor=#333333;strokeColor=#666666;" parent="6WhiR2F2wimydT9bmPVz-87" vertex="1">
          <mxGeometry x="40" y="30" width="110" height="30" as="geometry" />
        </mxCell>
        <mxCell id="6WhiR2F2wimydT9bmPVz-90" value="坐标列表" style="rounded=1;whiteSpace=wrap;html=1;fillColor=#f5f5f5;fontColor=#333333;strokeColor=#666666;" parent="6WhiR2F2wimydT9bmPVz-87" vertex="1">
          <mxGeometry x="40" y="70" width="110" height="30" as="geometry" />
        </mxCell>
        <mxCell id="6WhiR2F2wimydT9bmPVz-89" style="edgeStyle=orthogonalEdgeStyle;rounded=0;orthogonalLoop=1;jettySize=auto;html=1;entryX=0;entryY=0.5;entryDx=0;entryDy=0;" parent="1" source="6WhiR2F2wimydT9bmPVz-63" target="6WhiR2F2wimydT9bmPVz-87" edge="1">
          <mxGeometry relative="1" as="geometry" />
        </mxCell>
        <mxCell id="6WhiR2F2wimydT9bmPVz-91" value="拍照/图库中选取" style="whiteSpace=wrap;html=1;fillColor=#dae8fc;strokeColor=#6c8ebf;rounded=1;" parent="1" vertex="1">
          <mxGeometry x="1650" y="510" width="120" height="35" as="geometry" />
        </mxCell>
        <mxCell id="6WhiR2F2wimydT9bmPVz-96" value="选择已有昆虫名称/新建昆虫名称" style="whiteSpace=wrap;html=1;fillColor=#dae8fc;strokeColor=#6c8ebf;rounded=1;" parent="1" vertex="1">
          <mxGeometry x="1844" y="250" width="156" height="67.5" as="geometry" />
        </mxCell>
        <mxCell id="6WhiR2F2wimydT9bmPVz-97" style="edgeStyle=orthogonalEdgeStyle;rounded=0;orthogonalLoop=1;jettySize=auto;html=1;entryX=0;entryY=0.5;entryDx=0;entryDy=0;" parent="1" source="6WhiR2F2wimydT9bmPVz-94" target="6WhiR2F2wimydT9bmPVz-96" edge="1">
          <mxGeometry relative="1" as="geometry" />
        </mxCell>
        <mxCell id="6WhiR2F2wimydT9bmPVz-98" style="edgeStyle=orthogonalEdgeStyle;rounded=0;orthogonalLoop=1;jettySize=auto;html=1;entryX=0;entryY=0.5;entryDx=0;entryDy=0;" parent="1" source="6WhiR2F2wimydT9bmPVz-62" target="6WhiR2F2wimydT9bmPVz-93" edge="1">
          <mxGeometry relative="1" as="geometry" />
        </mxCell>
        <mxCell id="6WhiR2F2wimydT9bmPVz-93" value="昆虫名称选择" style="swimlane;fillColor=#dae8fc;strokeColor=#6c8ebf;" parent="1" vertex="1">
          <mxGeometry x="1627" y="245" width="190" height="100" as="geometry" />
        </mxCell>
        <mxCell id="6WhiR2F2wimydT9bmPVz-94" value="搜索" style="rounded=1;whiteSpace=wrap;html=1;fillColor=#f5f5f5;fontColor=#333333;strokeColor=#666666;" parent="6WhiR2F2wimydT9bmPVz-93" vertex="1">
          <mxGeometry x="40" y="30" width="110" height="30" as="geometry" />
        </mxCell>
        <mxCell id="6WhiR2F2wimydT9bmPVz-104" style="edgeStyle=orthogonalEdgeStyle;rounded=0;orthogonalLoop=1;jettySize=auto;html=1;entryX=0;entryY=0.25;entryDx=0;entryDy=0;" parent="1" source="6WhiR2F2wimydT9bmPVz-15" target="6WhiR2F2wimydT9bmPVz-22" edge="1">
          <mxGeometry relative="1" as="geometry" />
        </mxCell>
        <mxCell id="6WhiR2F2wimydT9bmPVz-107" style="edgeStyle=orthogonalEdgeStyle;rounded=0;orthogonalLoop=1;jettySize=auto;html=1;entryX=0;entryY=0.5;entryDx=0;entryDy=0;" parent="1" source="6WhiR2F2wimydT9bmPVz-75" target="6WhiR2F2wimydT9bmPVz-77" edge="1">
          <mxGeometry relative="1" as="geometry" />
        </mxCell>
        <mxCell id="6WhiR2F2wimydT9bmPVz-108" style="edgeStyle=orthogonalEdgeStyle;rounded=0;orthogonalLoop=1;jettySize=auto;html=1;entryX=0;entryY=0.5;entryDx=0;entryDy=0;" parent="1" source="6WhiR2F2wimydT9bmPVz-76" target="6WhiR2F2wimydT9bmPVz-77" edge="1">
          <mxGeometry relative="1" as="geometry" />
        </mxCell>
        <mxCell id="6WhiR2F2wimydT9bmPVz-110" style="edgeStyle=orthogonalEdgeStyle;rounded=0;orthogonalLoop=1;jettySize=auto;html=1;entryX=0;entryY=0.5;entryDx=0;entryDy=0;" parent="1" source="6WhiR2F2wimydT9bmPVz-64" target="6WhiR2F2wimydT9bmPVz-91" edge="1">
          <mxGeometry relative="1" as="geometry" />
        </mxCell>
        <mxCell id="D4E3TM2pL5Uw4spP5ACC-2" value="虫类百科" style="swimlane;fillColor=#dae8fc;strokeColor=#6c8ebf;" vertex="1" parent="1">
          <mxGeometry x="1410" y="180" width="190" height="105" as="geometry" />
        </mxCell>
        <mxCell id="D4E3TM2pL5Uw4spP5ACC-3" value="百科分类" style="rounded=1;whiteSpace=wrap;html=1;fillColor=#f5f5f5;fontColor=#333333;strokeColor=#666666;" vertex="1" parent="D4E3TM2pL5Uw4spP5ACC-2">
          <mxGeometry x="40" y="30" width="110" height="30" as="geometry" />
        </mxCell>
        <mxCell id="D4E3TM2pL5Uw4spP5ACC-8" value="搜索" style="rounded=1;whiteSpace=wrap;html=1;fillColor=#f5f5f5;fontColor=#333333;strokeColor=#666666;" vertex="1" parent="D4E3TM2pL5Uw4spP5ACC-2">
          <mxGeometry x="40" y="70" width="110" height="30" as="geometry" />
        </mxCell>
        <mxCell id="D4E3TM2pL5Uw4spP5ACC-4" style="edgeStyle=orthogonalEdgeStyle;rounded=0;orthogonalLoop=1;jettySize=auto;html=1;entryX=0;entryY=0.5;entryDx=0;entryDy=0;" edge="1" parent="1" source="6WhiR2F2wimydT9bmPVz-49" target="D4E3TM2pL5Uw4spP5ACC-2">
          <mxGeometry relative="1" as="geometry" />
        </mxCell>
        <mxCell id="D4E3TM2pL5Uw4spP5ACC-9" style="edgeStyle=orthogonalEdgeStyle;rounded=0;orthogonalLoop=1;jettySize=auto;html=1;entryX=0;entryY=0.5;entryDx=0;entryDy=0;" edge="1" parent="1" source="D4E3TM2pL5Uw4spP5ACC-8" target="6WhiR2F2wimydT9bmPVz-52">
          <mxGeometry relative="1" as="geometry" />
        </mxCell>
        <mxCell id="D4E3TM2pL5Uw4spP5ACC-10" style="edgeStyle=orthogonalEdgeStyle;rounded=0;orthogonalLoop=1;jettySize=auto;html=1;entryX=0;entryY=0.5;entryDx=0;entryDy=0;" edge="1" parent="1" source="6WhiR2F2wimydT9bmPVz-48" target="6WhiR2F2wimydT9bmPVz-52">
          <mxGeometry relative="1" as="geometry">
            <Array as="points">
              <mxPoint x="1390" y="210" />
              <mxPoint x="1390" y="158" />
            </Array>
          </mxGeometry>
        </mxCell>
        <mxCell id="D4E3TM2pL5Uw4spP5ACC-11" style="edgeStyle=orthogonalEdgeStyle;rounded=0;orthogonalLoop=1;jettySize=auto;html=1;entryX=0;entryY=0.5;entryDx=0;entryDy=0;" edge="1" parent="1" source="D4E3TM2pL5Uw4spP5ACC-3" target="6WhiR2F2wimydT9bmPVz-52">
          <mxGeometry relative="1" as="geometry" />
        </mxCell>
      </root>
    </mxGraphModel>
  </diagram>
</mxfile>
